<?xml version="1.0" standalone="no"?>
<!DOCTYPE svg PUBLIC "-//W3C//DTD SVG 20010904//EN"
 "http://www.w3.org/TR/2001/REC-SVG-20010904/DTD/svg10.dtd">
<svg version="1.0" xmlns="http://www.w3.org/2000/svg"
 width="243.000000pt" height="243.000000pt" viewBox="0 0 243.000000 243.000000"
 preserveAspectRatio="xMidYMid meet">

<g transform="translate(0.000000,243.000000) scale(0.100000,-0.100000)"
fill="#000000" stroke="none">
<path d="M867 1788 c-9 -5 -17 -16 -17 -23 0 -11 -13 -15 -53 -15 -32 0 -61
-6 -76 -16 -23 -17 -23 -18 -19 -173 6 -183 22 -240 93 -319 45 -50 135 -105
193 -117 l32 -7 0 -142 c0 -205 26 -286 116 -365 169 -149 433 -75 510 141 9
27 14 83 14 162 l0 122 34 17 c72 34 112 125 87 200 -18 53 -80 104 -135 112
-37 6 -55 3 -93 -16 -66 -33 -93 -77 -93 -148 0 -67 28 -116 84 -146 l36 -20
0 -107 c0 -84 -5 -119 -20 -162 -35 -93 -115 -146 -219 -146 -72 1 -127 26
-172 79 -50 58 -59 97 -59 269 l0 150 33 6 c96 18 206 101 250 187 36 73 47
138 47 285 0 116 -1 124 -22 138 -13 10 -44 16 -74 16 -36 0 -54 4 -57 14 -3
8 -15 20 -26 26 -17 8 -24 7 -41 -10 -28 -28 -28 -122 0 -150 11 -11 24 -20
29 -20 12 0 41 29 41 41 0 5 14 9 30 9 l30 0 0 -113 c0 -133 -14 -185 -67
-246 -54 -64 -123 -95 -208 -96 -118 0 -212 57 -261 160 -21 44 -24 64 -24
173 l0 122 30 0 c20 0 30 -5 30 -15 0 -22 36 -38 60 -25 17 9 20 21 20 78 0
37 -4 72 -8 78 -11 17 -37 23 -55 12z m810 -530 c33 -31 32 -90 -3 -117 -56
-44 -134 -8 -134 60 0 70 85 106 137 57z"/>
</g>
</svg>
